# xmcd
#
# Track frame offsets:
#	150
#	15982
#	32791
#	48789
#	63884
#	75794
#	91658
#	107559
#	121719
#	135558
#	152092
#	168540
#	185953
#	201812
#
# Disc length: 2902 seconds
#
# Revision: 1
# Processed by: cddbd v1.5.2PL0 Copyright (c) Steve Scherf et al.
# Submitted via: audiograbber 1.83.01
#
DISCID=a00b540e
DTITLE=Sétimo Sentido - Meu Menino
DYEAR=1900
DGENRE=Country
TTITLE0=Tome Tome
TTITLE1=Te Amo Demais (Part. Bonde do Forró)
TTITLE2=Juliana "Bar da Boa"
TTITLE3=Meu Menino (Part. Tradição)
TTITLE4=Eu Sei Vacilei
TTITLE5=Eu Te Amei
TTITLE6=Quer Me Encontrar Vai No Buteco
TTITLE7=Quando Acordar Sem Você
TTITLE8=Coração Partido
TTITLE9=Jura Que Me Ama
TTITLE10=Larga Dele
TTITLE11=Mensagem de Amor
TTITLE12=O Sol Não Regressa
TTITLE13=Silêncio
EXTD=
EXTT0=
EXTT1=
EXTT2=
EXTT3=
EXTT4=
EXTT5=
EXTT6=
EXTT7=
EXTT8=
EXTT9=
EXTT10=
EXTT11=
EXTT12=
EXTT13=
PLAYORDER=
